<svg width="88" height="72" viewBox="0 0 88 72" fill="none" xmlns="http://www.w3.org/2000/svg">
<path d="M44.3998 4.53322C41.0665 6.66655 37.8665 9.73322 37.3331 11.1999C36.6665 13.4666 35.3331 13.9999 30.5331 13.9999C20.7998 13.9999 13.8665 18.7999 12.1331 26.6666C10.2665 35.0666 8.39981 38.1332 4.53314 38.9332L0.799805 39.5999L5.9998 44.6666C8.93314 47.4666 11.8665 49.9999 12.6665 50.2666C13.4665 50.5332 13.1998 52.9332 12.1331 56.7999L10.2665 63.0666L16.2665 63.8666C22.5331 64.6666 25.9998 63.3332 25.9998 59.8666C25.9998 58.7999 25.1998 57.9999 24.2665 57.9999C23.3331 57.9999 21.8665 57.3332 20.9331 56.3999C18.7998 54.2666 21.3331 49.9999 24.6665 49.9999C26.5331 49.9999 27.3331 49.0666 27.3331 47.1999C27.3331 44.2666 33.7331 37.5999 39.7331 34.5332C43.1998 32.6666 43.9998 32.6666 47.9998 34.5332C50.3998 35.7332 54.2665 36.6666 56.5331 36.6666C60.1331 36.6666 60.6665 37.1999 61.4665 41.4666C61.9998 44.7999 63.3331 46.5332 65.4665 47.3332C68.9331 48.6666 69.7331 52.3999 67.0665 55.0666C64.3998 57.7332 68.3998 60.6666 74.7998 60.6666C81.4665 60.6666 82.1331 58.9332 78.6665 52.1332C76.7998 48.6666 76.7998 47.9999 78.5331 47.0666C82.1331 45.0666 85.8665 37.1999 86.7998 29.8666L87.5998 22.5332L81.9998 23.0666C74.3998 23.8666 60.2665 19.5999 61.3331 16.9332C61.7331 15.8666 61.0665 14.2666 59.7331 13.3332C57.8665 11.8666 57.7331 11.1999 59.1998 7.46655C60.2665 5.19988 61.5998 3.33322 62.2665 3.33322C62.9331 3.33322 63.0665 2.66655 62.6665 1.99988C60.9331 -0.800117 50.6665 0.533216 44.3998 4.53322Z" fill="#16006D"/>
<path d="M32.1331 62.7999C26.5331 68.3999 27.4665 70.6666 35.7331 71.1999C48.7998 72.1333 61.9998 71.4666 61.9998 69.7333C61.9998 66.6666 58.9331 61.7333 55.9998 60.3999C53.3331 59.1999 52.2665 59.3333 50.1331 61.1999C47.4665 63.5999 41.9998 63.1999 41.9998 60.5333C41.9998 57.9999 35.5998 59.4666 32.1331 62.7999Z" fill="#16006D"/>
</svg>
