<svg width="97" height="98" viewBox="0 0 97 98" fill="none" xmlns="http://www.w3.org/2000/svg">
<path d="M59.788 9.14417C59.8395 8.91752 59.8493 8.70946 59.8176 8.51999C59.7913 8.32709 59.7076 8.13985 59.5666 7.95828C59.43 7.77772 59.2253 7.58869 58.9523 7.39118C58.6838 7.19469 58.3358 6.97781 57.9084 6.74054C57.4607 6.48934 57.0632 6.23318 56.7159 5.97206C56.3697 5.70649 56.0845 5.4291 55.8604 5.13988C55.6363 4.85066 55.4843 4.54274 55.4042 4.21613C55.3242 3.88951 55.327 3.53733 55.4128 3.15957C55.4986 2.78182 55.6556 2.45062 55.8838 2.16596C56.112 1.8813 56.3973 1.654 56.7396 1.48405C57.0874 1.31067 57.4787 1.20324 57.9134 1.16175C58.3481 1.12026 58.8143 1.15602 59.312 1.26905C60.0409 1.43455 60.6268 1.71482 61.0699 2.10984C61.5184 2.50143 61.825 2.95193 61.9897 3.46134C62.1555 3.96631 62.1808 4.47211 62.0658 4.97874L60.7859 4.6881C60.8686 4.32368 60.864 3.98382 60.772 3.66852C60.6811 3.34877 60.496 3.07308 60.2168 2.84144C59.9386 2.60535 59.5573 2.43231 59.0729 2.32231C58.6151 2.21837 58.2217 2.20148 57.8927 2.27163C57.5636 2.34179 57.2991 2.47798 57.0989 2.68022C56.9032 2.88347 56.7711 3.13619 56.7024 3.43839C56.656 3.64282 56.6558 3.83907 56.7019 4.02712C56.7535 4.21174 56.8542 4.39584 57.0041 4.57943C57.1585 4.76402 57.3643 4.94861 57.6214 5.13319C57.8831 5.31878 58.2012 5.51254 58.576 5.71446C59.0917 5.99515 59.5279 6.27645 59.8845 6.55837C60.2411 6.84029 60.521 7.13051 60.7243 7.42903C60.933 7.72411 61.0652 8.03688 61.1211 8.36734C61.1823 8.69436 61.1701 9.04675 61.0843 9.4245C60.9945 9.82003 60.8332 10.1596 60.6006 10.4433C60.3679 10.7269 60.077 10.9483 59.7278 11.1073C59.3786 11.2663 58.9809 11.3606 58.5349 11.3902C58.0944 11.4164 57.6186 11.3714 57.1075 11.2554C56.6586 11.1534 56.2306 10.9908 55.8233 10.7675C55.4205 10.5451 55.0695 10.2692 54.7705 9.93957C54.4759 9.61097 54.2634 9.24024 54.1328 8.82738C54.0077 8.41109 54.0001 7.96073 54.1101 7.47632L55.39 7.76696C55.3144 8.10027 55.3137 8.40155 55.3881 8.6708C55.4635 8.93561 55.5946 9.17101 55.7815 9.37702C55.9728 9.58403 56.2022 9.7576 56.4694 9.89774C56.7421 10.0344 57.0341 10.1381 57.3451 10.2088C57.794 10.3107 58.1881 10.3347 58.5275 10.281C58.8668 10.2272 59.1427 10.1029 59.3552 9.90811C59.5721 9.71435 59.7164 9.45971 59.788 9.14417Z" fill="white"/>
<path d="M63.9872 13.6019C63.5155 13.3952 63.1224 13.1284 62.8079 12.8015C62.4994 12.4722 62.2715 12.1011 62.1241 11.6882C61.9808 11.2771 61.924 10.8392 61.9535 10.3745C61.983 9.90973 62.1021 9.43945 62.3106 8.96361L62.4259 8.70065C62.6674 8.14969 62.9637 7.69492 63.3149 7.33634C63.668 6.97359 64.0502 6.70324 64.4615 6.52528C64.8729 6.34733 65.2898 6.25888 65.7123 6.25994C66.1348 6.261 66.536 6.34477 66.9158 6.51125C67.4 6.72346 67.7808 6.98988 68.0582 7.31051C68.3398 7.63297 68.5275 7.99385 68.6212 8.39317C68.7167 8.78831 68.73 9.2121 68.661 9.66454C68.5939 10.1128 68.4561 10.5749 68.2475 11.0507L68.0198 11.5704L62.9609 9.35312L63.3753 8.40771L67.2759 10.1173L67.3143 10.0296C67.4293 9.72179 67.4948 9.40217 67.5106 9.07077C67.5307 8.74121 67.4662 8.43429 67.3171 8.15002C67.168 7.86574 66.8952 7.63671 66.4987 7.46292C66.2357 7.34766 65.9689 7.29791 65.6983 7.31365C65.4295 7.32521 65.1683 7.40476 64.9145 7.55229C64.6608 7.69982 64.4215 7.9109 64.1966 8.18553C63.9718 8.46016 63.7697 8.80201 63.5904 9.21106L63.4752 9.47402C63.3343 9.79542 63.2455 10.1172 63.2087 10.4395C63.178 10.7594 63.2016 11.0633 63.2794 11.3512C63.3614 11.6409 63.499 11.9002 63.6922 12.1292C63.8896 12.36 64.1469 12.5449 64.4641 12.684C64.8732 12.8632 65.2562 12.9316 65.6132 12.889C65.9702 12.8465 66.3165 12.732 66.6519 12.5457L67.1089 13.4102C66.8659 13.5674 66.5877 13.6968 66.2745 13.7984C65.9613 13.8999 65.6124 13.9411 65.2278 13.9218C64.8473 13.9043 64.4338 13.7977 63.9872 13.6019Z" fill="white"/>
<path d="M71.6655 9.0896L72.738 9.77257L68.2913 16.7553C68.049 17.1358 67.7819 17.4196 67.49 17.6065C67.2019 17.7958 66.8939 17.8807 66.5661 17.861C66.2396 17.8476 65.8938 17.7246 65.5286 17.4921C65.4325 17.4309 65.3272 17.3503 65.2125 17.2503C65.0941 17.1478 64.9992 17.055 64.9279 16.9718L65.4808 16.1163C65.5441 16.1782 65.6194 16.2424 65.7067 16.3088C65.7916 16.3791 65.8687 16.4363 65.9379 16.4803C66.0955 16.5807 66.2465 16.6363 66.3908 16.6472C66.5352 16.6581 66.6746 16.6172 66.8092 16.5246C66.9477 16.4345 67.0842 16.2837 67.2189 16.0723L71.6655 9.0896ZM72.6097 7.36498C72.7199 7.19199 72.8667 7.08019 73.0502 7.02957C73.2338 6.97894 73.4274 7.0185 73.6311 7.14824C73.8387 7.28043 73.9584 7.44037 73.9901 7.62808C74.0219 7.81579 73.9827 7.99613 73.8725 8.16911C73.7672 8.33441 73.6229 8.44237 73.4393 8.49299C73.2583 8.53977 73.0639 8.49707 72.8564 8.36488C72.6526 8.23514 72.5337 8.07834 72.4995 7.89448C72.4677 7.70677 72.5045 7.53027 72.6097 7.36498Z" fill="white"/>
<path d="M74.8288 18.8751L77.3433 16.016C77.536 15.7969 77.6585 15.5679 77.711 15.3288C77.7699 15.0893 77.7512 14.8483 77.6549 14.6058C77.5587 14.3634 77.3822 14.1293 77.1255 13.9036C76.886 13.6929 76.6394 13.5489 76.3858 13.4715C76.1356 13.3971 75.9005 13.3815 75.6805 13.4247C75.4638 13.4709 75.2878 13.571 75.1524 13.7249L74.2027 12.8898C74.3773 12.6913 74.6017 12.5397 74.8759 12.4349C75.1501 12.3301 75.4523 12.2833 75.7824 12.2944C76.1189 12.3051 76.4629 12.3832 76.8145 12.5285C77.1726 12.6735 77.5193 12.8934 77.8546 13.1884C78.2585 13.5435 78.5542 13.925 78.7418 14.3327C78.9328 14.7435 78.9937 15.1642 78.9244 15.5949C78.8616 16.0252 78.6481 16.4473 78.2839 16.8614L76.0087 19.4485C75.8461 19.6333 75.6885 19.8436 75.5357 20.0795C75.3863 20.3183 75.2779 20.5416 75.2105 20.7494L75.1383 20.8315L74.1476 19.9602C74.196 19.8086 74.2863 19.63 74.4184 19.4246C74.5535 19.2157 74.6903 19.0326 74.8288 18.8751ZM77.1194 16.6019L76.5427 17.2782L75.5828 16.434C75.3125 16.1963 75.0517 16.0063 74.8004 15.8642C74.5521 15.7187 74.3185 15.6255 74.0995 15.5846C73.8805 15.5438 73.6762 15.5553 73.4865 15.6191C73.2999 15.6795 73.1313 15.7953 72.9809 15.9664C72.8274 16.1409 72.7268 16.3346 72.6791 16.5476C72.6314 16.7605 72.6486 16.979 72.7308 17.203C72.8194 17.4266 72.9801 17.6407 73.2128 17.8454C73.5036 18.1012 73.8145 18.2653 74.1453 18.3377C74.476 18.4102 74.7847 18.4146 75.0713 18.351C75.3612 18.2904 75.5851 18.1808 75.7428 18.0222L75.7465 18.8357C75.5962 18.9583 75.3912 19.0603 75.1316 19.1415C74.8721 19.2227 74.5826 19.2655 74.2632 19.2698C73.9502 19.2738 73.6256 19.2219 73.2893 19.1143C72.9595 19.0063 72.644 18.8199 72.3428 18.555C71.9664 18.224 71.7009 17.86 71.5462 17.463C71.395 17.0691 71.3491 16.6797 71.4084 16.2949C71.4741 15.9096 71.6424 15.563 71.9132 15.255C72.1751 14.9573 72.4635 14.7466 72.7785 14.6231C73.0965 14.4962 73.4312 14.4537 73.7826 14.4957C74.1371 14.5344 74.5029 14.6498 74.8801 14.8419C75.2573 15.0341 75.6359 15.2972 76.0157 15.6313L77.1194 16.6019Z" fill="white"/>
<path d="M83.8875 29.688L88.7693 26.7699L89.4217 27.8612L83.073 31.6562L82.4522 30.6177L83.8875 29.688ZM85.3481 29.0937L85.6299 29.5385C85.2074 29.791 84.7894 29.9798 84.3757 30.105C83.9683 30.2317 83.5751 30.2756 83.1961 30.2367C82.8171 30.1978 82.4586 30.0643 82.1205 29.8363C81.7864 29.606 81.4837 29.2639 81.2125 28.8102C81.0278 28.5012 80.9032 28.1907 80.8389 27.8787C80.7769 27.5707 80.7848 27.2686 80.8626 26.9725C80.9405 26.6764 81.0996 26.3875 81.3401 26.1058C81.5828 25.8279 81.9154 25.5627 82.3379 25.3102L86.4334 22.8621L87.0823 23.9476L82.975 26.4027C82.6894 26.5734 82.4715 26.7462 82.3211 26.921C82.177 27.0974 82.083 27.2731 82.0389 27.4481C82.0011 27.6247 82.0016 27.7943 82.0404 27.9569C82.0816 28.1234 82.1466 28.281 82.2354 28.4297C82.5113 28.8913 82.818 29.2044 83.1553 29.3691C83.4966 29.5314 83.8529 29.5813 84.2243 29.5186C84.6019 29.4574 84.9765 29.3158 85.3481 29.0937Z" fill="white"/>
<path d="M89.7973 32.2546L84.1703 34.1157L83.7711 32.9086L90.7934 30.5859L91.1712 31.7281L89.7973 32.2546ZM87.866 32.6197L87.7009 32.0551C88.1826 31.9006 88.6468 31.8167 89.0936 31.8033C89.5447 31.7885 89.9611 31.85 90.3427 31.9878C90.7242 32.1256 91.0559 32.3447 91.3377 32.6451C91.6238 32.9441 91.8441 33.3272 91.9987 33.7945C92.1074 34.1233 92.16 34.4419 92.1564 34.7503C92.1572 35.0573 92.0916 35.3454 91.9599 35.6146C91.8281 35.8837 91.6251 36.1261 91.3507 36.3416C91.0764 36.5572 90.7186 36.7379 90.2773 36.8839L85.5979 38.4317L85.2008 37.231L89.8217 35.7026C90.1895 35.5809 90.463 35.4209 90.6421 35.2224C90.8227 35.0283 90.9256 34.8022 90.9507 34.5443C90.9801 34.285 90.9447 34.0039 90.8445 33.701C90.7272 33.3462 90.5664 33.0706 90.3622 32.8741C90.158 32.6776 89.922 32.5445 89.6541 32.4747C89.3862 32.4049 89.0988 32.3848 88.7917 32.4144C88.4904 32.4468 88.1819 32.5153 87.866 32.6197ZM90.0329 36.9504L89.52 36.2272C89.9066 36.1041 90.2972 36.0445 90.6921 36.0483C91.0884 36.0564 91.4636 36.1315 91.8178 36.2735C92.1735 36.4199 92.4886 36.6397 92.7631 36.9329C93.0421 37.2247 93.2552 37.5934 93.4026 38.039C93.5271 38.4154 93.5876 38.7651 93.5839 39.0879C93.5817 39.415 93.5097 39.7124 93.3679 39.9802C93.2318 40.2508 93.0208 40.491 92.735 40.7007C92.4491 40.9105 92.0855 41.0883 91.6442 41.2343L87.0297 42.7606L86.6305 41.5534L91.2579 40.0228C91.6517 39.8926 91.9359 39.729 92.1108 39.5319C92.2914 39.3378 92.3877 39.1139 92.3998 38.8603C92.4177 38.6096 92.3758 38.3306 92.2742 38.0234C92.1869 37.7595 92.0642 37.5409 91.9061 37.3676C91.748 37.1943 91.566 37.0649 91.3601 36.9794C91.1585 36.8924 90.9439 36.8458 90.7162 36.8395C90.49 36.8376 90.2622 36.8745 90.0329 36.9504Z" fill="white"/>
<path d="M88.218 51.6641L92.0244 51.7606C92.316 51.768 92.5703 51.7151 92.7875 51.6021C93.009 51.4938 93.182 51.3249 93.3063 51.0956C93.4307 50.8662 93.4972 50.5807 93.5058 50.239C93.5139 49.9201 93.4663 49.6385 93.3631 49.3943C93.2598 49.1546 93.121 48.9642 92.9468 48.823C92.7724 48.6864 92.5828 48.6155 92.3777 48.6103L92.4098 47.3461C92.674 47.3528 92.9342 47.4277 93.1905 47.571C93.4467 47.7142 93.6763 47.9161 93.8795 48.1765C94.087 48.4416 94.2477 48.7557 94.3616 49.1187C94.4799 49.4864 94.5334 49.8935 94.5221 50.34C94.5085 50.8776 94.4054 51.3491 94.2128 51.7545C94.02 52.1644 93.7362 52.4809 93.3613 52.7039C92.9908 52.9316 92.53 53.0384 91.9787 53.0245L88.5345 52.9372C88.2885 52.931 88.026 52.9448 87.7471 52.9788C87.468 53.0173 87.2272 53.0773 87.0245 53.1588L86.9152 53.156L86.9486 51.8371C87.096 51.777 87.2909 51.7318 87.5333 51.7015C87.7802 51.6713 88.0084 51.6588 88.218 51.6641ZM91.4312 51.9644L90.5424 51.9555L90.5748 50.6776C90.5839 50.3177 90.5625 49.9958 90.5104 49.7118C90.4629 49.428 90.3846 49.1889 90.2755 48.9947C90.1665 48.8005 90.0267 48.651 89.8561 48.5464C89.6901 48.4419 89.4932 48.3868 89.2654 48.381C89.033 48.3751 88.8198 48.4222 88.6258 48.5221C88.4318 48.622 88.2752 48.7753 88.156 48.982C88.0413 49.1934 87.98 49.454 87.9721 49.7637C87.9623 50.151 88.0357 50.4948 88.1922 50.795C88.3487 51.0953 88.5432 51.335 88.7757 51.5142C89.0081 51.6978 89.2358 51.7993 89.4586 51.8187L88.8368 52.3431C88.6462 52.3064 88.4366 52.2144 88.2078 52.0673C87.979 51.9202 87.7606 51.7255 87.5525 51.4832C87.3488 51.2455 87.1804 50.9632 87.0474 50.6361C86.9188 50.3137 86.8596 49.9521 86.8697 49.5512C86.8824 49.05 86.9915 48.6129 87.197 48.2397C87.4024 47.8711 87.6717 47.5862 88.005 47.3849C88.3428 47.1883 88.7167 47.0952 89.1267 47.1056C89.5231 47.1157 89.8696 47.2019 90.1664 47.3645C90.4677 47.5271 90.7149 47.7567 90.908 48.0534C91.1056 48.3501 91.2516 48.7049 91.346 49.1175C91.4404 49.5302 91.4812 49.9894 91.4684 50.4951L91.4312 51.9644Z" fill="white"/>
<path d="M92.3065 56.9545L83.6841 55.1054L83.9507 53.8622L93.9633 56.0094L93.7197 57.1457L92.3065 56.9545ZM89.0959 61.3627L88.9555 61.3326C88.4297 61.2198 87.9552 61.0528 87.5319 60.8315C87.113 60.6112 86.7645 60.3454 86.4864 60.034C86.2073 59.7271 86.0137 59.3803 85.9055 58.9936C85.7974 58.6068 85.7915 58.1884 85.8881 57.7384C85.9865 57.2794 86.1492 56.8902 86.3762 56.5706C86.6032 56.2511 86.8878 55.9999 87.23 55.8169C87.5722 55.6339 87.9618 55.5124 88.3988 55.4523C88.8349 55.3967 89.3127 55.3966 89.8321 55.4521L90.5807 55.6126C91.104 55.7808 91.5615 55.9837 91.9533 56.2216C92.345 56.4594 92.6644 56.7306 92.9114 57.0353C93.1618 57.3453 93.3277 57.6909 93.4092 58.0719C93.495 58.4539 93.4892 58.8721 93.3918 59.3266C93.2943 59.7811 93.1187 60.1653 92.865 60.4791C92.6157 60.7938 92.3026 61.0366 91.9257 61.2075C91.5488 61.3784 91.1202 61.4752 90.6399 61.4981C90.1631 61.5263 89.6484 61.4812 89.0959 61.3627ZM89.2221 60.0894L89.3625 60.1195C89.7234 60.1969 90.0702 60.2316 90.4028 60.2237C90.7399 60.2168 91.046 60.1589 91.321 60.0501C91.5995 59.9467 91.8341 59.7873 92.0248 59.5718C92.22 59.3573 92.3539 59.0807 92.4265 58.7421C92.4934 58.4301 92.4982 58.1469 92.4409 57.8922C92.3827 57.642 92.2795 57.4171 92.1312 57.2175C91.9874 57.0189 91.8106 56.8435 91.6008 56.6913C91.3946 56.5446 91.1742 56.4204 90.9396 56.3188L89.2085 55.9476C88.8775 55.9698 88.5566 56.0315 88.2459 56.1326C87.9397 56.2348 87.6733 56.4014 87.4466 56.6324C87.2244 56.8644 87.0698 57.1832 86.9829 57.5886C86.9112 57.9228 86.9186 58.2251 87.0052 58.4953C87.0952 58.771 87.246 59.0131 87.4577 59.2216C87.6683 59.4346 87.9237 59.6128 88.2239 59.7564C88.5285 59.901 88.8612 60.012 89.2221 60.0894Z" fill="white"/>
<path d="M88.4912 62.7138L88.6359 62.7753C89.1267 62.9839 89.5514 63.2486 89.9102 63.5695C90.2732 63.8922 90.5528 64.2537 90.7491 64.654C90.9496 65.0561 91.0546 65.4846 91.0644 65.9394C91.0783 66.3959 90.9845 66.8611 90.7831 67.3351C90.5798 67.8132 90.309 68.2057 89.9706 68.5124C89.6347 68.8252 89.2523 69.0489 88.8237 69.1837C88.3974 69.3243 87.9422 69.376 87.458 69.3385C86.978 69.3028 86.4926 69.1807 86.0019 68.9721L85.8572 68.9106C85.3665 68.702 84.9417 68.4373 84.5829 68.1164C84.2241 67.7955 83.9454 67.4319 83.7467 67.0256C83.5504 66.6252 83.4453 66.1968 83.4314 65.7403C83.4199 65.2897 83.5158 64.8253 83.719 64.3472C83.9223 63.8691 84.191 63.4757 84.5252 63.1672C84.8636 62.8604 85.2459 62.6366 85.6721 62.496C86.1008 62.3612 86.5551 62.3117 87.0351 62.3474C87.5152 62.3831 88.0005 62.5052 88.4912 62.7138ZM88.1412 63.9392L87.9965 63.8777C87.6568 63.7333 87.319 63.6367 86.9832 63.588C86.6515 63.5412 86.3365 63.5484 86.0381 63.6097C85.7378 63.6752 85.4689 63.8011 85.2313 63.9873C84.9979 64.1753 84.8126 64.4307 84.6753 64.7537C84.5398 65.0724 84.4862 65.379 84.5146 65.6733C84.5455 65.9736 84.6423 66.2525 84.8053 66.5099C84.9682 66.7674 85.1816 66.9992 85.4455 67.2055C85.7118 67.4177 86.0149 67.596 86.3546 67.7404L86.4993 67.8019C86.8348 67.9446 87.1693 68.0372 87.5027 68.0799C87.8386 68.1286 88.1566 68.1202 88.4568 68.0547C88.7594 67.9951 89.0295 67.8722 89.2671 67.686C89.503 67.504 89.6895 67.2515 89.8268 66.9286C89.9623 66.6098 90.0146 66.3003 89.9838 66C89.9512 65.7039 89.8523 65.4241 89.6869 65.1607C89.524 64.9033 89.3085 64.6706 89.0404 64.4625C88.7765 64.2562 88.4767 64.0818 88.1412 63.9392Z" fill="white"/>
<path d="M87.4324 73.4561L81.1674 69.5244L81.8433 68.4474L88.1083 72.3791L87.4324 73.4561ZM89.8209 73.3409C89.9946 73.4499 90.1086 73.5941 90.1629 73.7734C90.2147 73.9566 90.1752 74.1524 90.0444 74.3609C89.916 74.5655 89.7581 74.6842 89.5706 74.7172C89.3806 74.7541 89.1988 74.718 89.0251 74.609C88.8591 74.5048 88.7514 74.3592 88.702 74.1722C88.6541 73.9914 88.6943 73.7987 88.8227 73.5942C88.9535 73.3857 89.1107 73.2638 89.2943 73.2284C89.4794 73.1992 89.6549 73.2368 89.8209 73.3409Z" fill="white"/>
<path d="M77.368 76.5782L80.2428 79.0749C80.463 79.2662 80.6928 79.3873 80.9322 79.4383C81.1721 79.4957 81.4129 79.4755 81.6548 79.3777C81.8967 79.28 82.1297 79.102 82.3538 78.844C82.563 78.6031 82.7055 78.3557 82.7813 78.1016C82.8541 77.8509 82.8682 77.6157 82.8237 77.396C82.7761 77.1796 82.675 77.0042 82.5201 76.8698L83.3494 75.915C83.5489 76.0883 83.702 76.3117 83.8084 76.5853C83.9149 76.8588 83.9636 77.1607 83.9545 77.4908C83.9459 77.8274 83.87 78.1719 83.7269 78.5244C83.5841 78.8834 83.3663 79.2314 83.0735 79.5686C82.7209 79.9746 82.3413 80.2727 81.9347 80.4629C81.5251 80.6564 81.1048 80.7199 80.6737 80.6534C80.243 80.5932 79.8195 80.3824 79.4032 80.0208L76.802 77.7616C76.6162 77.6002 76.4049 77.4439 76.1681 77.2926C75.9283 77.1447 75.7044 77.0377 75.4962 76.9716L75.4136 76.8999L76.2787 75.9038C76.4307 75.9512 76.6098 76.0404 76.816 76.1712C77.0257 76.3051 77.2097 76.4407 77.368 76.5782ZM79.6555 78.8546L78.9756 78.2822L79.8138 77.317C80.0499 77.0452 80.2382 76.7832 80.3787 76.5311C80.5227 76.2819 80.6144 76.0477 80.6539 75.8284C80.6934 75.6092 80.6807 75.405 80.6157 75.2157C80.5541 75.0295 80.4373 74.8616 80.2653 74.7122C80.0898 74.5598 79.8954 74.4604 79.6822 74.414C79.4689 74.3677 79.2506 74.3863 79.0271 74.4698C78.8041 74.5598 78.5909 74.7218 78.3877 74.9558C78.1337 75.2483 77.9715 75.5601 77.9012 75.8913C77.8308 76.2226 77.8283 76.5313 77.8936 76.8174C77.956 77.107 78.067 77.3301 78.2267 77.4869L77.4132 77.4957C77.2896 77.3461 77.1864 77.1418 77.1036 76.8827C77.0207 76.6236 76.9761 76.3344 76.9698 76.015C76.9639 75.7021 77.0137 75.3772 77.1193 75.0402C77.2252 74.7097 77.4097 74.3931 77.6727 74.0903C78.0014 73.7118 78.3637 73.444 78.7597 73.2869C79.1527 73.1333 79.5418 73.0849 79.927 73.1418C80.3126 73.2051 80.6603 73.3712 80.97 73.6402C81.2693 73.9002 81.4817 74.1873 81.6072 74.5015C81.7361 74.8187 81.7807 75.1531 81.7408 75.5048C81.7044 75.8595 81.5913 76.226 81.4015 76.6044C81.2117 76.9828 80.9509 77.363 80.6192 77.7449L79.6555 78.8546Z" fill="white"/>
<path d="M71.6686 81.8151L77.2964 88.9208L76.2997 89.7102L69.7805 81.4792L70.6915 80.7576L71.6686 81.8151ZM76.9236 80.4347L77.0128 80.5472C77.3636 80.9902 77.6284 81.4346 77.807 81.8803C77.9848 82.3324 78.077 82.7681 78.0835 83.1873C78.0864 83.6094 78.0037 84.0004 77.8354 84.3605C77.6664 84.7269 77.4086 85.0473 77.0621 85.3218C76.6977 85.6104 76.3288 85.7979 75.9554 85.8844C75.5813 85.9772 75.2034 85.9771 74.8216 85.8842C74.4391 85.7976 74.0581 85.6285 73.6785 85.3768C73.299 85.1251 72.918 84.8019 72.5356 84.4072L72.1451 83.9142C71.8477 83.4579 71.6218 83.0148 71.4673 82.5849C71.3092 82.1578 71.2319 81.7482 71.2352 81.356C71.235 80.9667 71.3215 80.5988 71.4947 80.2523C71.6707 79.9094 71.9427 79.5922 72.3107 79.3008C72.6501 79.032 73.0189 78.8591 73.4172 78.782C73.8118 78.7078 74.2157 78.7222 74.6287 78.8253C75.0381 78.9312 75.4397 79.1189 75.8334 79.3885C76.2263 79.6644 76.5898 80.0131 76.9236 80.4347ZM76.016 81.3367L75.9269 81.2241C75.6977 80.9348 75.4541 80.6859 75.196 80.4775C74.9344 80.272 74.6647 80.1222 74.3869 80.0284C74.109 79.9345 73.8298 79.9086 73.5492 79.9506C73.2714 79.9962 72.9985 80.1251 72.7306 80.3374C72.4019 80.5977 72.1873 80.881 72.0869 81.1872C71.9829 81.4963 71.9572 81.8161 72.0096 82.1466C72.0621 82.4771 72.1587 82.8047 72.2995 83.1292L73.3224 84.4206C73.5209 84.5832 73.7333 84.723 73.9598 84.8401C74.1855 84.9636 74.4193 85.0459 74.6611 85.087C74.9021 85.1344 75.1495 85.1274 75.4032 85.066C75.6533 85.0075 75.9034 84.8791 76.1535 84.6811C76.425 84.466 76.6137 84.2235 76.7196 83.9536C76.8248 83.6901 76.8621 83.4105 76.8316 83.115C76.8038 82.8231 76.7184 82.5244 76.5754 82.2191C76.4317 81.9202 76.2452 81.626 76.016 81.3367Z" fill="white"/>
<path d="M70.5315 85.2904L70.6042 85.4298C70.8507 85.9026 71.0106 86.3769 71.0839 86.8526C71.1593 87.3324 71.1456 87.7892 71.0429 88.2231C70.9423 88.661 70.7513 89.0587 70.4699 89.4161C70.1907 89.7776 69.8228 90.0773 69.3661 90.3154C68.9054 90.5556 68.447 90.6867 67.9908 90.7087C67.5326 90.7368 67.0952 90.6668 66.6786 90.4985C66.26 90.3365 65.8756 90.0872 65.5254 89.7507C65.1773 89.4182 64.88 89.0155 64.6335 88.5427L64.5609 88.4033C64.3143 87.9305 64.1544 87.4563 64.0812 86.9805C64.0079 86.5048 64.0235 86.0469 64.1282 85.6069C64.2309 85.173 64.4219 84.7753 64.7011 84.4139C64.9784 84.0586 65.3474 83.7608 65.8081 83.5207C66.2688 83.2805 66.7262 83.1474 67.1803 83.1213C67.6365 83.0993 68.0739 83.1694 68.4925 83.3314C68.9091 83.4997 69.2915 83.75 69.6396 84.0825C69.9877 84.415 70.285 84.8176 70.5315 85.2904ZM69.4828 86.0145L69.4101 85.8751C69.2394 85.5477 69.0399 85.2586 68.8114 85.0077C68.585 84.7608 68.3371 84.5663 68.0677 84.4241C67.7942 84.284 67.5066 84.2104 67.2048 84.2033C66.9051 84.2002 66.5996 84.2798 66.2885 84.442C65.9814 84.6021 65.7453 84.8049 65.5803 85.0502C65.4133 85.3018 65.311 85.5787 65.2733 85.881C65.2356 86.1833 65.2532 86.4979 65.326 86.8249C65.3969 87.158 65.5176 87.4882 65.6883 87.8155L65.761 87.9549C65.9295 88.2782 66.129 88.5622 66.3594 88.807C66.5879 89.0579 66.8389 89.2534 67.1124 89.3935C67.3839 89.5398 67.6706 89.6164 67.9724 89.6236C68.2701 89.6328 68.5746 89.5563 68.8858 89.394C69.1929 89.2339 69.4299 89.0281 69.5969 88.7766C69.7598 88.5272 69.8611 88.2482 69.9007 87.9398C69.9384 87.6375 69.9197 87.3208 69.8448 86.9898C69.772 86.6629 69.6513 86.3378 69.4828 86.0145Z" fill="white"/>
<path d="M62.5955 91.7917L60.679 85.8592L61.8824 85.4705L64.1562 92.5088L62.9853 92.887L62.5955 91.7917ZM60.7667 93.6469L60.4117 92.5259C60.5185 92.5154 60.6181 92.4976 60.7106 92.4725C60.8001 92.4531 60.9012 92.4253 61.014 92.3888C61.2915 92.2992 61.5225 92.1766 61.707 92.0213C61.8915 91.8659 62.0322 91.6863 62.1293 91.4826C62.2263 91.2788 62.2831 91.0545 62.2998 90.8097C62.3135 90.5706 62.2921 90.3189 62.2355 90.0546L62.5107 89.7502C62.648 90.1752 62.7357 90.5874 62.7737 90.987C62.8075 91.388 62.7817 91.7603 62.6964 92.1039C62.6124 92.4519 62.4598 92.7503 62.2384 92.999C62.0141 93.2535 61.7111 93.4423 61.3295 93.5656C61.2428 93.5936 61.1395 93.615 61.0198 93.6298C60.9014 93.6488 60.8171 93.6545 60.7667 93.6469Z" fill="white"/>
<path d="M51.8392 92.8261L51.8508 93.1062C51.8669 93.4978 51.7573 93.8261 51.5219 94.0913C51.282 94.3566 50.9481 94.4981 50.52 94.5157C50.0875 94.5336 49.7407 94.4202 49.4797 94.1755C49.2188 93.9308 49.0802 93.6127 49.0641 93.2211L49.0525 92.9411C49.0366 92.554 49.1485 92.2279 49.3885 91.9625C49.624 91.702 49.9581 91.5627 50.3906 91.5449C50.8187 91.5272 51.1631 91.6385 51.4238 91.8786C51.6848 92.1232 51.8232 92.4391 51.8392 92.8261Z" fill="white"/>
<path d="M35.1204 88.476C35.0619 88.701 35.0456 88.9086 35.0714 89.099C35.0916 89.2926 35.1694 89.4824 35.3047 89.6683C35.4356 89.853 35.6343 90.0483 35.901 90.2543C36.1632 90.4591 36.5042 90.6867 36.9241 90.9372C37.3637 91.2023 37.753 91.4707 38.0919 91.7426C38.4297 92.0188 38.7061 92.305 38.921 92.601C39.136 92.8971 39.2783 93.2096 39.3481 93.5386C39.418 93.8676 39.4041 94.2195 39.3066 94.5944C39.209 94.9693 39.0418 95.2954 38.8048 95.5728C38.5678 95.8502 38.2756 96.0685 37.9281 96.2276C37.575 96.3901 37.1806 96.4852 36.7448 96.5131C36.309 96.541 35.8442 96.4907 35.3502 96.3622C34.6269 96.174 34.05 95.8756 33.6195 95.4669C33.1834 95.0615 32.891 94.6016 32.7423 94.0873C32.5924 93.5774 32.5829 93.0711 32.7137 92.5683L33.9839 92.8988C33.8898 93.2604 33.8838 93.6003 33.9659 93.9183C34.0468 94.2407 34.2232 94.5221 34.495 94.7623C34.7657 95.007 35.1414 95.1918 35.6221 95.3169C36.0764 95.4351 36.4691 95.4643 36.8002 95.4044C37.1312 95.3446 37.4 95.2167 37.6063 95.0208C37.8083 94.8238 37.9483 94.5753 38.0263 94.2754C38.0791 94.0725 38.0854 93.8764 38.0452 93.687C37.9994 93.5008 37.9045 93.3137 37.7604 93.1255C37.6119 92.9362 37.412 92.7453 37.1607 92.5527C36.905 92.3591 36.593 92.1555 36.2247 91.9419C35.718 91.6453 35.2908 91.3505 34.9432 91.0576C34.5956 90.7646 34.3249 90.4658 34.1311 90.1611C33.9317 89.8596 33.8092 89.5429 33.7638 89.2109C33.7127 88.8821 33.736 88.5302 33.8335 88.1554C33.9357 87.7628 34.1074 87.4284 34.3488 87.1522C34.5902 86.8759 34.8879 86.6638 35.2419 86.5157C35.596 86.3677 35.9963 86.2859 36.4431 86.2702C36.8842 86.2579 37.3584 86.3177 37.8656 86.4496C38.311 86.5655 38.7338 86.7414 39.1339 86.9774C39.5296 87.2122 39.8717 87.499 40.1603 87.8377C40.4445 88.1754 40.6454 88.5526 40.763 88.9693C40.875 89.3893 40.8685 89.8397 40.7434 90.3204L39.4732 89.9899C39.5593 89.6592 39.5694 89.358 39.5034 89.0866C39.4363 88.8196 39.3126 88.5802 39.1322 88.3684C38.9475 88.1556 38.7237 87.9749 38.4609 87.8265C38.1926 87.6813 37.9041 87.5686 37.5954 87.4883C37.1499 87.3724 36.7567 87.336 36.4159 87.3792C36.075 87.4224 35.7954 87.538 35.5769 87.726C35.3541 87.9129 35.2019 88.1629 35.1204 88.476Z" fill="white"/>
<path d="M31.0657 83.8908C31.5307 84.1121 31.9153 84.391 32.2195 84.7275C32.5176 85.0662 32.7339 85.4442 32.8684 85.8615C32.9988 86.2769 33.042 86.7163 32.9981 87.1799C32.9541 87.6435 32.8205 88.1099 32.5973 88.579L32.4739 88.8383C32.2154 89.3815 31.9051 89.8268 31.5429 90.1743C31.1787 90.5259 30.7883 90.7842 30.3716 90.9493C29.9549 91.1144 29.5354 91.1898 29.1132 91.1756C28.6909 91.1614 28.2926 91.0652 27.9181 90.887C27.4408 90.6599 27.0684 90.3818 26.8011 90.0527C26.5296 89.7216 26.3533 89.3551 26.2721 88.953C26.1889 88.5551 26.1888 88.1311 26.2717 87.681C26.3527 87.2351 26.5048 86.7775 26.7281 86.3084L26.9719 85.7961L31.9594 88.1695L31.5159 89.1015L27.6703 87.2716L27.6292 87.358C27.5046 87.6621 27.4293 87.9795 27.4031 88.3103C27.3728 88.639 27.4278 88.9478 27.5679 89.2366C27.7081 89.5254 27.9737 89.7628 28.3646 89.9488C28.6238 90.0722 28.889 90.1302 29.1599 90.1229C29.4289 90.1197 29.6926 90.0483 29.9508 89.9087C30.209 89.7691 30.4547 89.5656 30.688 89.2981C30.9213 89.0306 31.1339 88.6952 31.3258 88.2919L31.4492 88.0326C31.5999 87.7158 31.6987 87.3969 31.7455 87.0759C31.7861 86.7571 31.772 86.4527 31.7032 86.1625C31.6302 85.8704 31.5007 85.6069 31.3147 85.372C31.1246 85.1352 30.8732 84.9423 30.5604 84.7935C30.1572 84.6016 29.7764 84.5214 29.4183 84.5528C29.0601 84.5843 28.7105 84.6879 28.3694 84.8637L27.9395 83.9854C28.1873 83.8358 28.4694 83.7152 28.7856 83.6234C29.1018 83.5316 29.4518 83.5013 29.8357 83.5326C30.2154 83.5619 30.6254 83.6813 31.0657 83.8908Z" fill="white"/>
<path d="M23.2614 88.1698L22.2103 87.4543L26.8687 80.611C27.1226 80.2381 27.3983 79.9627 27.6958 79.7848C27.9896 79.6043 28.3 79.529 28.6271 79.5587C28.953 79.5821 29.2949 79.7156 29.6527 79.9592C29.7469 80.0233 29.8498 80.1071 29.9613 80.2106C30.0765 80.3166 30.1685 80.4123 30.2372 80.4976L29.6584 81.3358C29.5971 81.272 29.5238 81.2055 29.4385 81.1365C29.3558 81.0636 29.2805 81.0041 29.2127 80.9579C29.0582 80.8528 28.909 80.7926 28.7651 80.7773C28.6211 80.762 28.4805 80.7985 28.3431 80.887C28.2019 80.9728 28.0609 81.1193 27.9198 81.3265L23.2614 88.1698ZM22.2647 89.8646C22.1493 90.0342 21.9991 90.1414 21.8142 90.1864C21.6292 90.2314 21.4369 90.1859 21.2372 90.05C21.0338 89.9115 20.9191 89.748 20.8931 89.5594C20.8671 89.3708 20.9118 89.1917 21.0272 89.0222C21.1375 88.8602 21.2851 88.7567 21.4701 88.7117C21.6525 88.6705 21.8454 88.7192 22.0489 88.8577C22.2485 88.9936 22.3626 89.1539 22.3912 89.3388C22.4172 89.5274 22.375 89.7027 22.2647 89.8646Z" fill="white"/>
<path d="M20.4275 78.2598L17.8267 81.0408C17.6275 81.2538 17.498 81.479 17.4382 81.7164C17.372 81.954 17.3833 82.1954 17.4722 82.4407C17.561 82.686 17.7302 82.9254 17.9798 83.1589C18.2128 83.3768 18.4549 83.5283 18.706 83.6134C18.9538 83.6953 19.1883 83.7181 19.4096 83.6817C19.6275 83.6422 19.8065 83.5475 19.9466 83.3977L20.8703 84.2616C20.6897 84.4546 20.4608 84.5993 20.1835 84.6956C19.9062 84.792 19.6028 84.8295 19.2732 84.8083C18.9372 84.7873 18.5956 84.6988 18.2486 84.5428C17.8952 84.3869 17.5554 84.1565 17.2292 83.8514C16.8364 83.4841 16.5525 83.0938 16.3775 82.6805C16.1991 82.2641 16.1511 81.8417 16.2335 81.4133C16.3094 80.9852 16.5357 80.5697 16.9124 80.167L19.2658 77.6506C19.4338 77.4709 19.5979 77.2655 19.7578 77.0344C19.9144 76.8003 20.0296 76.5804 20.1033 76.3748L20.178 76.2949L21.1416 77.1961C21.0886 77.3462 20.9929 77.5219 20.8545 77.7232C20.7131 77.9278 20.5707 78.1067 20.4275 78.2598ZM18.0685 80.462L18.6655 79.8036L19.5992 80.6768C19.8621 80.9227 20.117 81.1205 20.3639 81.2702C20.6076 81.4233 20.8383 81.5236 21.0559 81.5711C21.2735 81.6186 21.4781 81.6134 21.6696 81.5554C21.858 81.5007 22.03 81.3902 22.1857 81.2238C22.3444 81.054 22.4509 80.8634 22.5051 80.652C22.5593 80.4407 22.5487 80.2218 22.4734 79.9953C22.3917 79.7692 22.2376 79.5502 22.0113 79.3385C21.7284 79.074 21.4227 78.9004 21.0943 78.8179C20.7659 78.7354 20.4575 78.7215 20.1692 78.7763C19.8775 78.828 19.6504 78.9307 19.4879 79.0845L19.509 78.2712C19.663 78.1532 19.871 78.0576 20.133 77.9843C20.3949 77.9111 20.6856 77.8772 21.005 77.8826C21.3179 77.8883 21.6408 77.95 21.9736 78.0678C22.3 78.1859 22.6096 78.3819 22.9025 78.6558C23.2687 78.9982 23.523 79.3702 23.6654 79.7717C23.8044 80.17 23.8385 80.5607 23.7675 80.9435C23.69 81.3266 23.5112 81.6679 23.231 81.9674C22.9602 82.257 22.6655 82.4587 22.3469 82.5726C22.0251 82.6897 21.6893 82.7219 21.3393 82.6692C20.9862 82.6197 20.6241 82.4932 20.2529 82.2896C19.8817 82.086 19.5114 81.8114 19.142 81.4659L18.0685 80.462Z" fill="white"/>
<path d="M11.6743 67.2058L6.70496 69.9723L6.08648 68.8614L12.5489 65.2636L13.1375 66.3207L11.6743 67.2058ZM10.1961 67.7549L9.92811 67.3016C10.3581 67.0622 10.7818 66.8863 11.1991 66.774C11.6102 66.6598 12.0046 66.628 12.3822 66.6786C12.7598 66.7292 13.1141 66.8736 13.445 67.1119C13.7718 67.3524 14.0639 67.7036 14.321 68.1655C14.4961 68.48 14.6111 68.7942 14.6658 69.108C14.7183 69.4178 14.7011 69.7195 14.6142 70.013C14.5272 70.3066 14.3593 70.5905 14.1103 70.8647C13.8591 71.1349 13.5185 71.3898 13.0885 71.6292L8.91954 73.9501L8.30438 72.8452L12.4853 70.5176C12.7759 70.3557 12.9991 70.1898 13.1548 70.0197C13.3042 69.8478 13.4037 69.6751 13.4531 69.5015C13.4963 69.3262 13.501 69.1566 13.4672 68.9929C13.4312 68.8252 13.3711 68.6656 13.2869 68.5143C13.0253 68.0445 12.7284 67.7221 12.3963 67.5471C12.0602 67.3743 11.7056 67.3135 11.3325 67.3648C10.9532 67.4142 10.5744 67.5443 10.1961 67.7549Z" fill="white"/>
<path d="M5.8463 64.4561L11.5282 62.7703L11.8899 63.9892L4.79893 66.0931L4.45672 64.9396L5.8463 64.4561ZM7.78795 64.1509L7.93551 64.7204C7.44925 64.8599 6.98262 64.9294 6.53564 64.9289C6.08428 64.9297 5.67004 64.8554 5.29291 64.7058C4.91579 64.5562 4.59106 64.327 4.31875 64.018C4.04206 63.7103 3.83372 63.3205 3.69372 62.8486C3.59521 62.5166 3.55253 62.1965 3.56569 61.8883C3.57448 61.5815 3.6489 61.2956 3.78895 61.0306C3.929 60.7656 4.13946 60.5297 4.42033 60.3228C4.7012 60.1158 5.06446 59.9463 5.5101 59.814L10.2352 58.4121L10.5949 59.6246L5.92879 61.009C5.55742 61.1191 5.27912 61.2706 5.09389 61.4635C4.90737 61.6519 4.79756 61.8746 4.76448 62.1316C4.72703 62.3899 4.75367 62.672 4.84441 62.9778C4.9507 63.3361 5.10285 63.6166 5.30085 63.8193C5.49884 64.022 5.73064 64.1624 5.99624 64.2404C6.26184 64.3185 6.54854 64.3475 6.85634 64.3275C7.15847 64.3044 7.46901 64.2456 7.78795 64.1509ZM5.75647 59.7552L6.24661 60.494C5.85647 60.605 5.46412 60.6524 5.06956 60.6364C4.67371 60.616 4.30097 60.5293 3.95135 60.3763C3.60044 60.219 3.29231 59.9896 3.02695 59.688C2.75723 59.3877 2.55561 59.0126 2.42209 58.5626C2.30932 58.1825 2.25975 57.8311 2.27339 57.5086C2.28573 57.1817 2.36694 56.8866 2.51703 56.6234C2.66145 56.3572 2.87976 56.1236 3.17196 55.9229C3.46416 55.7221 3.83308 55.5556 4.27873 55.4234L8.93832 54.0409L9.29998 55.2599L4.62728 56.6462C4.22969 56.7642 3.94047 56.9189 3.75961 57.1104C3.57308 57.2989 3.46983 57.5197 3.44986 57.7728C3.42421 58.0228 3.45741 58.3029 3.54945 58.6131C3.62852 58.8797 3.74439 59.102 3.89707 59.2801C4.04974 59.4582 4.22764 59.5932 4.43078 59.6851C4.62955 59.7782 4.84262 59.8314 5.07 59.8448C5.29609 59.8538 5.52491 59.8239 5.75647 59.7552Z" fill="white"/>
<path d="M8.02162 45.0893L4.21999 44.8759C3.92878 44.8596 3.67293 44.9045 3.45243 45.0108C3.22764 45.1123 3.04958 45.2758 2.91825 45.5012C2.78692 45.7266 2.71168 46.01 2.69253 46.3512C2.67465 46.6697 2.71354 46.9526 2.80921 47.1999C2.90513 47.4427 3.03799 47.6373 3.20779 47.7837C3.37783 47.9256 3.56524 48.0023 3.76999 48.0138L3.69912 49.2765C3.43521 49.2617 3.17741 49.1787 2.92572 49.0277C2.67402 48.8766 2.45067 48.6678 2.25567 48.4013C2.05637 48.1299 1.90538 47.811 1.8027 47.4447C1.69573 47.0735 1.65476 46.665 1.67979 46.2191C1.70992 45.6822 1.82749 45.214 2.03248 44.8147C2.23772 44.4109 2.53114 44.1033 2.91272 43.8919C3.29001 43.6757 3.75394 43.5831 4.30451 43.614L7.74441 43.8071C7.99011 43.8209 8.2529 43.8151 8.53275 43.7897C8.81286 43.7598 9.05545 43.7072 9.26051 43.632L9.36971 43.6381L9.29577 44.9554C9.14659 45.0109 8.95041 45.0501 8.7072 45.073C8.45945 45.0956 8.23093 45.101 8.02162 45.0893ZM4.81921 44.6904L5.70725 44.7266L5.63562 46.0029C5.61544 46.3624 5.62701 46.6848 5.67033 46.9702C5.7091 47.2554 5.77999 47.4967 5.88302 47.6942C5.98605 47.8917 6.1212 48.0454 6.28849 48.1552C6.45123 48.2647 6.64635 48.3259 6.87385 48.3387C7.10591 48.3517 7.32043 48.3112 7.51741 48.2173C7.71439 48.1234 7.87563 47.975 8.00113 47.772C8.12234 47.5643 8.19162 47.3058 8.20899 46.9963C8.2307 46.6096 8.16795 46.2637 8.02075 45.9588C7.87354 45.6538 7.68649 45.4082 7.45959 45.2221C7.23294 45.0313 7.00852 44.9229 6.78633 44.8967L7.42404 44.3916C7.61335 44.4342 7.82008 44.5325 8.04422 44.6866C8.26836 44.8407 8.48072 45.042 8.6813 45.2906C8.87758 45.5344 9.03718 45.8218 9.1601 46.1528C9.27873 46.479 9.3268 46.8423 9.30433 47.2427C9.27623 47.7432 9.15376 48.1768 8.93691 48.5435C8.72031 48.9056 8.44233 49.1821 8.10298 49.373C7.75932 49.5592 7.38274 49.6407 6.97323 49.6177C6.57737 49.5955 6.23362 49.4986 5.942 49.3271C5.64582 49.1552 5.40581 48.9181 5.22195 48.6157C5.03353 48.313 4.8985 47.9539 4.81683 47.5385C4.73516 47.1232 4.7085 46.6629 4.73685 46.1579L4.81921 44.6904Z" fill="white"/>
<path d="M4.10029 39.6768L12.6606 41.7946L12.3552 43.0289L2.41466 40.5695L2.69376 39.4414L4.10029 39.6768ZM7.44713 35.3711L7.58648 35.4056C8.1085 35.5348 8.5776 35.7165 8.99377 35.9509C9.40551 36.1843 9.74552 36.4609 10.0138 36.7807C10.2831 37.0962 10.4658 37.4489 10.5618 37.8388C10.6579 38.2288 10.6506 38.6472 10.54 39.094C10.4273 39.5496 10.2525 39.9336 10.0156 40.2459C9.77876 40.5582 9.48644 40.8004 9.13869 40.9726C8.79094 41.1447 8.39772 41.254 7.95902 41.3004C7.52142 41.3424 7.04389 41.3275 6.52643 41.2558L5.78322 41.072C5.26548 40.8875 4.81453 40.6703 4.43038 40.4204C4.04623 40.1704 3.7355 39.8893 3.4982 39.5771C3.25757 39.2594 3.10252 38.9088 3.03306 38.5254C2.95917 38.141 2.97804 37.7231 3.08968 37.2719C3.20131 36.8206 3.38884 36.4421 3.65226 36.1364C3.91126 35.8296 4.23178 35.5967 4.61383 35.4377C4.99588 35.2787 5.4273 35.1953 5.90809 35.1875C6.38555 35.1742 6.89856 35.2354 7.44713 35.3711ZM7.28112 36.6399L7.14177 36.6054C6.78343 36.5167 6.43791 36.4712 6.1052 36.4687C5.76808 36.4651 5.46037 36.5133 5.18207 36.6135C4.90045 36.7081 4.66097 36.8602 4.46363 37.0695C4.26187 37.2778 4.1194 37.5501 4.03622 37.8863C3.9596 38.196 3.94593 38.479 3.99519 38.7353C4.04554 38.9872 4.14171 39.2152 4.28369 39.4193C4.42124 39.6224 4.59246 39.8032 4.79733 39.9619C4.99887 40.115 5.21528 40.246 5.44655 40.3549L7.16524 40.7801C7.49681 40.7682 7.81943 40.7166 8.13311 40.6252C8.44237 40.5327 8.71389 40.3745 8.94767 40.1507C9.17703 39.9257 9.3415 39.612 9.4411 39.2094C9.52319 38.8776 9.52521 38.5753 9.44717 38.3025C9.3658 38.0241 9.22261 37.7775 9.01761 37.5624C8.81369 37.343 8.56399 37.1568 8.2685 37.0039C7.96858 36.8499 7.63946 36.7285 7.28112 36.6399Z" fill="white"/>
<path d="M8.09133 34.0444L7.94862 33.9784C7.46464 33.7547 7.04833 33.4769 6.69969 33.145C6.34692 32.8112 6.07867 32.4411 5.89496 32.0349C5.70712 31.6267 5.61541 31.1952 5.61984 30.7404C5.62014 30.2836 5.72834 29.8215 5.94444 29.3541C6.16246 28.8825 6.44536 28.4987 6.79313 28.2025C7.13867 27.9004 7.52777 27.6887 7.96041 27.5673C8.39083 27.44 8.84744 27.4026 9.33026 27.4551C9.80895 27.5057 10.2903 27.6429 10.7743 27.8666L10.917 27.9326C11.401 28.1564 11.8173 28.4342 12.1659 28.7661C12.5145 29.098 12.7818 29.4701 12.9678 29.8824C13.1515 30.2886 13.2432 30.7201 13.2429 31.1769C13.2404 31.6276 13.1301 32.0887 12.9121 32.5603C12.6941 33.0319 12.4132 33.4167 12.0696 33.7147C11.7218 34.0108 11.3327 34.2225 10.9023 34.3499C10.4697 34.4712 10.014 34.5066 9.53533 34.456C9.05665 34.4054 8.57531 34.2682 8.09133 34.0444ZM8.47932 32.8305L8.62204 32.8965C8.9571 33.0514 9.29172 33.1584 9.62589 33.2175C9.95592 33.2747 10.271 33.2773 10.5712 33.2253C10.8733 33.1692 11.146 33.0517 11.3893 32.873C11.6285 32.6924 11.8217 32.4428 11.9689 32.1243C12.1143 31.8099 12.1773 31.5052 12.1581 31.2101C12.1367 30.909 12.0485 30.6272 11.8937 30.3648C11.7388 30.1025 11.5327 29.8641 11.2754 29.6497C11.0158 29.4293 10.7185 29.2416 10.3834 29.0867L10.2407 29.0207C9.90976 28.8677 9.57832 28.7647 9.24638 28.7117C8.9122 28.6526 8.59407 28.6511 8.29197 28.7072C7.98765 28.7573 7.71384 28.8717 7.47055 29.0504C7.22917 29.225 7.03485 29.4716 6.88759 29.7901C6.74224 30.1045 6.68029 30.4122 6.70174 30.7134C6.7251 31.0103 6.81532 31.293 6.97238 31.5615C7.12722 31.8238 7.33539 32.0632 7.59689 32.2795C7.85425 32.4939 8.14839 32.6775 8.47932 32.8305Z" fill="white"/>
<path d="M9.47581 23.3522L15.6175 27.4739L14.9089 28.5297L8.76728 24.408L9.47581 23.3522ZM7.08488 23.3942C6.9146 23.2799 6.80508 23.1323 6.75634 22.9514C6.71014 22.7667 6.75561 22.5722 6.89274 22.3679C7.02734 22.1673 7.18885 22.0534 7.37726 22.0262C7.56822 21.9952 7.74884 22.0368 7.91912 22.1511C8.08184 22.2603 8.18503 22.4091 8.22869 22.5976C8.27111 22.7797 8.22502 22.9711 8.09042 23.1716C7.95329 23.376 7.7924 23.493 7.60777 23.5228C7.4219 23.5462 7.2476 23.5034 7.08488 23.3942Z" fill="white"/>
<path d="M19.6331 20.5365L16.836 17.953C16.6217 17.7551 16.3957 17.627 16.158 17.5688C15.92 17.504 15.6786 17.5168 15.4339 17.6072C15.1891 17.6975 14.9508 17.8682 14.7189 18.1193C14.5025 18.3537 14.3525 18.5966 14.2689 18.8483C14.1885 19.0966 14.1672 19.3312 14.205 19.5523C14.2459 19.77 14.3416 19.9484 14.4923 20.0875L13.6342 21.0165C13.44 20.8372 13.2939 20.6092 13.1959 20.3325C13.0978 20.0558 13.0584 19.7526 13.0775 19.4229C13.0964 19.0867 13.1828 18.7447 13.3367 18.3967C13.4903 18.0423 13.7187 17.7011 14.0217 17.373C14.3866 16.9779 14.7751 16.6916 15.1873 16.514C15.6026 16.333 16.0247 16.2824 16.4536 16.3622C16.8822 16.4354 17.299 16.6592 17.7041 17.0333L20.235 19.371C20.4158 19.5379 20.6222 19.7007 20.8543 19.8592C21.0894 20.0143 21.31 20.1281 21.516 20.2006L21.5964 20.2748L20.7012 21.2439C20.5508 21.1919 20.3745 21.0973 20.1723 20.9602C19.9668 20.82 19.7871 20.6788 19.6331 20.5365ZM17.4163 18.1912L18.0784 18.7842L17.211 19.7232C16.9667 19.9877 16.7705 20.2438 16.6223 20.4916C16.4708 20.7362 16.3719 20.9675 16.3257 21.1854C16.2796 21.4033 16.2861 21.6079 16.3453 21.799C16.4011 21.9871 16.5127 22.1584 16.6801 22.313C16.8508 22.4707 17.0421 22.576 17.2538 22.6289C17.4655 22.6817 17.6844 22.6698 17.9103 22.5931C18.136 22.51 18.3539 22.3546 18.5642 22.127C18.827 21.8424 18.9987 21.5357 19.0792 21.2067C19.1596 20.8778 19.1716 20.5694 19.115 20.2813C19.0615 19.99 18.9574 19.7635 18.8026 19.602L19.6159 19.6181C19.7349 19.7714 19.8318 19.9788 19.9067 20.2402C19.9816 20.5017 20.0173 20.7922 20.0139 21.1116C20.0102 21.4246 19.9504 21.7478 19.8347 22.0814C19.7186 22.4085 19.5246 22.7193 19.2525 23.0139C18.9123 23.3822 18.542 23.6388 18.1414 23.7837C17.7439 23.9252 17.3535 23.9617 16.9702 23.8931C16.5867 23.818 16.2442 23.6413 15.9429 23.363C15.6517 23.094 15.4481 22.8005 15.3323 22.4826C15.2132 22.1616 15.1789 21.826 15.2295 21.4757C15.2767 21.1222 15.401 20.7593 15.6023 20.3869C15.8036 20.0145 16.0758 19.6425 16.4191 19.2709L17.4163 18.1912Z" fill="white"/>
<path d="M25.4915 15.4751L20.0843 8.20007L21.1048 7.44158L27.3684 15.8687L26.4357 16.562L25.4915 15.4751ZM20.1966 16.6936L20.1109 16.5784C19.7738 16.1248 19.5229 15.6726 19.358 15.2216C19.1941 14.7642 19.1153 14.3259 19.1217 13.9067C19.1317 13.4847 19.2264 13.0964 19.4056 12.7417C19.5859 12.3806 19.8534 12.0682 20.2081 11.8045C20.5812 11.5272 20.9557 11.3511 21.3315 11.2762C21.7083 11.1949 22.0861 11.2065 22.4648 11.3112C22.8444 11.4094 23.2201 11.5902 23.5918 11.8534C23.9634 12.1166 24.3343 12.4513 24.7044 12.8576L25.0796 13.3623C25.3629 13.8275 25.5751 14.2773 25.7163 14.7118C25.8612 15.1435 25.926 15.5553 25.9106 15.9472C25.8989 16.3364 25.8012 16.7014 25.6174 17.0424C25.4309 17.3798 25.1493 17.6885 24.7726 17.9685C24.4251 18.2267 24.0511 18.3883 23.6507 18.4531C23.254 18.5152 22.8508 18.4884 22.4411 18.3727C22.0351 18.2542 21.6395 18.0543 21.2542 17.7728C20.8699 17.4849 20.5174 17.1252 20.1966 16.6936ZM21.1314 15.8199L21.2171 15.9351C21.4373 16.2314 21.6731 16.4876 21.9247 16.7038C22.1799 16.9173 22.4449 17.0752 22.7197 17.1776C22.9945 17.2799 23.2728 17.3144 23.5546 17.281C23.8337 17.2439 24.1104 17.1234 24.3847 16.9195C24.7212 16.6694 24.9443 16.3928 25.0541 16.0898C25.1675 15.784 25.2031 15.4652 25.1608 15.1332C25.1185 14.8013 25.0319 14.4709 24.9012 14.1422L23.9184 12.82C23.725 12.6515 23.5169 12.5052 23.2942 12.3812C23.0723 12.2508 22.8412 12.1614 22.6008 12.1129C22.3613 12.0581 22.1138 12.0575 21.8584 12.1111C21.6066 12.162 21.3527 12.2825 21.0967 12.4728C20.8187 12.6795 20.6226 12.916 20.5084 13.1826C20.3952 13.4428 20.3493 13.7211 20.3708 14.0174C20.3896 14.31 20.4658 14.6112 20.5994 14.9207C20.7339 15.2239 20.9112 15.5236 21.1314 15.8199Z" fill="white"/>
<path d="M26.7359 12.0356L26.6675 11.894C26.4358 11.4137 26.2906 10.9348 26.2321 10.457C26.1716 9.9751 26.1994 9.51891 26.3155 9.08842C26.4296 8.65383 26.6328 8.26227 26.9251 7.91374C27.2154 7.56111 27.5924 7.27288 28.0562 7.04905C28.5241 6.82324 28.9864 6.7064 29.4431 6.69853C29.9019 6.68458 30.3369 6.76813 30.7482 6.94918C31.1615 7.12415 31.538 7.38523 31.8776 7.73242C32.2152 8.0755 32.4999 8.48715 32.7317 8.96736L32.8 9.10895C33.0318 9.58916 33.1769 10.0682 33.2354 10.5459C33.294 11.0237 33.2641 11.4809 33.1459 11.9175C33.0298 12.3479 32.8266 12.7395 32.5363 13.0921C32.2481 13.4387 31.8701 13.7249 31.4022 13.9507C30.9343 14.1765 30.473 14.2954 30.0183 14.3073C29.5616 14.3152 29.1266 14.2317 28.7132 14.0567C28.302 13.8756 27.9276 13.6136 27.5899 13.2705C27.2523 12.9274 26.9676 12.5158 26.7359 12.0356ZM27.8065 11.3443L27.8748 11.4859C28.0353 11.8183 28.2258 12.1135 28.4464 12.3714C28.665 12.6251 28.9068 12.8273 29.1717 12.9777C29.4407 13.1262 29.7259 13.2087 30.0273 13.2251C30.3268 13.2375 30.6345 13.1674 30.9506 13.0149C31.2625 12.8644 31.5047 12.669 31.6773 12.4289C31.8519 12.1827 31.9628 11.909 32.0098 11.608C32.0568 11.307 32.049 10.992 31.9864 10.663C31.9258 10.3278 31.8153 9.99404 31.6549 9.66159L31.5866 9.51999C31.4281 9.19165 31.2375 8.90158 31.0148 8.64979C30.7942 8.39191 30.5494 8.18873 30.2804 8.04024C30.0135 7.88567 29.7293 7.80016 29.4279 7.7837C29.1306 7.76527 28.8239 7.83231 28.5078 7.98483C28.1959 8.13537 27.9526 8.33375 27.7779 8.57998C27.6074 8.82422 27.4975 9.09989 27.4484 9.40698C27.4014 9.70799 27.4102 10.0251 27.4748 10.3582C27.5375 10.6872 27.648 11.0159 27.8065 11.3443Z" fill="white"/>
<path d="M34.8695 5.78406L36.601 11.7732L35.3861 12.1244L33.3319 5.0189L34.5139 4.67716L34.8695 5.78406ZM36.755 3.98657L37.075 5.11799C36.968 5.12521 36.8679 5.13992 36.7747 5.16212C36.6846 5.17868 36.5826 5.20341 36.4688 5.23632C36.1886 5.31733 35.9539 5.43262 35.7647 5.5822C35.5755 5.73177 35.4292 5.90688 35.3259 6.10753C35.2226 6.30817 35.1589 6.53059 35.1346 6.77481C35.1134 7.01338 35.127 7.26561 35.1754 7.53151L34.8909 7.82724C34.7669 7.3982 34.692 6.9834 34.6664 6.58284C34.6451 6.18102 34.6824 5.80969 34.7784 5.46885C34.8731 5.12363 35.0349 4.83015 35.2639 4.58843C35.496 4.34106 35.8047 4.16169 36.1899 4.05031C36.2775 4.02499 36.3814 4.00683 36.5015 3.99581C36.6204 3.98041 36.7049 3.97733 36.755 3.98657Z" fill="white"/>
<path d="M45.6696 5.08196L45.6667 4.8017C45.6626 4.4098 45.7822 4.08496 46.0256 3.82719C46.2736 3.56937 46.6118 3.43821 47.0401 3.43372C47.473 3.42919 47.8162 3.55321 48.0695 3.80577C48.3228 4.05834 48.4515 4.38058 48.4556 4.77249L48.4585 5.05274C48.4626 5.44009 48.3406 5.76268 48.0927 6.0205C47.8492 6.27371 47.511 6.40259 47.0781 6.40712C46.6497 6.41161 46.3089 6.28985 46.0557 6.04184C45.8024 5.78927 45.6737 5.46931 45.6696 5.08196Z" fill="white"/>
</svg>
