<svg width="28" height="28" viewBox="0 0 28 28" fill="none" xmlns="http://www.w3.org/2000/svg">
<g clip-path="url(#clip0_61_42)">
<path d="M13.7813 0.00907612C13.7448 0.0120945 13.634 0.0211515 13.5319 0.0302076C12.5446 0.114737 11.5836 0.532849 10.799 1.22266C10.6356 1.36606 10.2958 1.72983 10.1573 1.90945C9.59001 2.64304 9.24147 3.50342 9.12043 4.47549C9.08543 4.75474 9.08543 5.38115 9.12043 5.66794C9.1948 6.27172 9.33772 6.77285 9.58855 7.29813C9.78689 7.71625 9.98814 8.03323 10.2725 8.37738C10.4256 8.56153 17.1486 15.5351 17.2594 15.6227C17.3002 15.6559 17.3629 15.6936 17.3994 15.7072C17.4942 15.7449 17.6488 15.7404 17.7552 15.6981C17.8398 15.6664 17.9448 15.5593 21.2858 12.0996C23.1802 10.1404 24.78 8.47398 24.8427 8.40002C25.4931 7.61813 25.8679 6.75172 26.0108 5.69059C26.0488 5.41738 26.0488 4.73511 26.0108 4.45285C25.9336 3.85662 25.7921 3.36002 25.5573 2.8604C24.9871 1.64832 23.9502 0.700397 22.7252 0.273227C22.015 0.0256796 21.2188 -0.0528107 20.4896 0.0543585C19.9529 0.13285 19.4804 0.280774 19.0094 0.520774C18.5325 0.762283 18.1388 1.04908 17.7596 1.43096L17.5729 1.61964L17.395 1.44757C16.9604 1.02945 16.66 0.806057 16.2094 0.564548C15.6669 0.274736 15.05 0.0875664 14.4448 0.0317173C14.2567 0.0136042 13.8746 1.90735e-05 13.7813 0.00907612ZM14.1954 1.02643C14.474 1.04455 14.6606 1.07323 14.8954 1.13059C15.3431 1.24228 15.7486 1.42492 16.1321 1.69059C16.4165 1.88681 16.5361 1.99096 16.9313 2.39398C17.1325 2.59927 17.3148 2.77134 17.3469 2.78945C17.43 2.83172 17.5511 2.85285 17.64 2.83776C17.7815 2.81361 17.8398 2.76832 18.2 2.397C18.3881 2.20379 18.6113 1.98794 18.6958 1.91851C19.1727 1.52153 19.7108 1.25285 20.2927 1.11851C21.3413 0.877001 22.4263 1.08228 23.3071 1.69059C23.5696 1.87021 23.7154 1.99398 23.9313 2.21889C24.4694 2.77738 24.8369 3.48228 24.9871 4.24606C25.0381 4.50417 25.0542 4.64908 25.0644 4.94342C25.0979 5.93662 24.7858 6.88002 24.1675 7.65889C24.0508 7.8053 17.5904 14.5057 17.5656 14.5057C17.5569 14.5057 16.0898 12.9932 14.3048 11.1427C10.9696 7.68757 10.9346 7.65134 10.7115 7.30417C9.68918 5.71021 9.8948 3.57889 11.2 2.2204C11.8854 1.50794 12.7677 1.09134 13.7244 1.02794C13.8236 1.0204 13.9183 1.01436 13.9344 1.01436C13.9504 1.01285 14.0671 1.01889 14.1954 1.02643Z" fill="white"/>
<path d="M0.0145874 19.8642V25.5245H2.04313C4.03521 25.5245 4.07459 25.5245 4.21896 25.4928C4.71188 25.3887 5.13771 25.0204 5.3098 24.5479C5.33459 24.4815 5.35209 24.4528 5.37105 24.4528C5.40605 24.4528 5.69771 24.5192 5.94271 24.5826C6.65 24.7668 7.46084 25.0928 8.1448 25.4687C8.61 25.7238 9.01834 25.9955 9.77084 26.5494C10.6167 27.1743 10.936 27.3691 11.4917 27.597C12.7458 28.1147 14.1342 28.1298 15.5823 27.6423C15.9979 27.5034 16.504 27.274 16.8583 27.0642C16.9269 27.0234 17.7406 26.6476 18.6667 26.2294C22.4977 24.4966 25.4756 23.1366 26.2792 22.7517C26.8785 22.4664 27.1279 22.2959 27.4313 21.9683C27.7638 21.6076 27.9417 21.2015 27.9869 20.6959C28.0248 20.2823 27.9431 19.8777 27.7535 19.5381C27.4531 19.0023 26.8625 18.634 26.1435 18.5359C26.0794 18.5283 25.9131 18.5208 25.7717 18.5208C25.4785 18.5208 25.235 18.5509 24.974 18.6234C24.8865 18.6476 23.7183 19.0596 22.3796 19.5381C21.0408 20.0151 19.9427 20.406 19.9413 20.403C19.9398 20.4015 19.9471 20.3517 19.9588 20.2943C20.0142 20.003 19.9952 19.6574 19.9063 19.3645C19.6394 18.4815 18.7221 17.8204 17.6458 17.7359C17.5306 17.7268 16.8729 17.7208 16.0708 17.7208C14.5615 17.7208 14.5469 17.7192 14.2231 17.6302C13.6515 17.4717 12.9777 17.0989 12.2354 16.5268C11.6506 16.0785 11.1533 15.8294 10.5044 15.6619C9.99396 15.5291 9.49084 15.4792 8.94688 15.5034C8.81855 15.5094 7.96834 15.5155 7.05688 15.5155L5.39875 15.517L5.36959 15.3902C5.3273 15.2121 5.25875 15.0491 5.16105 14.8996C4.91605 14.5177 4.53396 14.2762 4.09063 14.2204C4.00021 14.2098 3.33521 14.2038 1.98771 14.2038H0.0145874V19.8642ZM4.11542 15.2574C4.21896 15.3011 4.3298 15.4068 4.38375 15.517L4.42605 15.6V19.8642V24.1283L4.38521 24.2128C4.33855 24.314 4.22625 24.4272 4.13 24.4725L4.06146 24.5057L2.5273 24.5102L0.991671 24.5132V19.8642V15.2136L2.51271 15.2181L4.0323 15.2226L4.11542 15.2574ZM9.39896 16.5132C9.79854 16.5374 10.1092 16.5902 10.4271 16.6883C10.8996 16.8347 11.2102 16.9993 11.6404 17.3298C12.6613 18.1147 13.491 18.5328 14.3413 18.6898C14.5119 18.7215 14.5644 18.723 16.0927 18.7321C17.764 18.7426 17.7202 18.7411 17.9813 18.8151C18.3006 18.9072 18.6142 19.1079 18.7877 19.3313C18.8956 19.4702 18.951 19.5774 18.989 19.7208C19.059 19.9864 18.9846 20.3125 18.7819 20.6204C18.5865 20.9177 18.1985 21.1064 17.6677 21.1623C17.344 21.1955 15.8463 21.2076 14.0554 21.1925C12.7458 21.1804 12.2938 21.1804 12.2471 21.194C12.2135 21.203 12.1508 21.2332 12.1115 21.2619C11.8606 21.434 11.8256 21.8113 12.04 22.0332C12.1173 22.1117 12.1917 22.1525 12.3025 22.1721C12.3535 22.1811 13.036 22.1947 13.9781 22.2053C16.1204 22.2279 17.449 22.2098 17.9083 22.1494C18.149 22.1177 18.4363 22.0423 18.6404 21.9562C18.8038 21.8868 24.8981 19.7026 25.149 19.6226C25.3546 19.5577 25.5296 19.5321 25.7731 19.5321C26.2121 19.5321 26.5577 19.6543 26.7896 19.8943C26.9558 20.0664 27.0142 20.2264 27.0142 20.5132C27.0127 20.8619 26.9238 21.0672 26.6627 21.3298C26.5402 21.4536 26.339 21.5985 26.1581 21.6921C25.7469 21.9064 21.9173 23.6589 17.166 25.8053C16.8015 25.9683 16.4515 26.1374 16.3858 26.1781C16.1248 26.3411 15.6158 26.5736 15.2542 26.6943C14.035 27.0989 12.8523 27.0777 11.7906 26.6309C11.3735 26.4559 11.0425 26.2476 10.2448 25.6589C9.47917 25.0943 9.03438 24.8045 8.48021 24.5117C7.55125 24.0196 6.65438 23.6906 5.6875 23.4868L5.41771 23.4294L5.41334 19.9789L5.41042 16.5283L7.105 16.5268C8.52396 16.5253 9.02855 16.5177 9.13646 16.5011C9.14521 16.4996 9.26334 16.5057 9.39896 16.5132Z" fill="white"/>
</g>
<defs>
<clipPath id="clip0_61_42">
<rect width="28" height="28" fill="white"/>
</clipPath>
</defs>
</svg>
