<?xml version="1.0" standalone="no"?>
<!DOCTYPE svg PUBLIC "-//W3C//DTD SVG 20010904//EN"
 "http://www.w3.org/TR/2001/REC-SVG-20010904/DTD/svg10.dtd">
<svg version="1.0" xmlns="http://www.w3.org/2000/svg"
 width="372.000000pt" height="180.000000pt" viewBox="0 0 372.000000 180.000000"
 preserveAspectRatio="xMidYMid meet">

<g transform="translate(0.000000,180.000000) scale(0.100000,-0.100000)"
fill="#000000" stroke="none">
<path d="M143 1675 c-18 -20 -19 -775 -1 -793 8 -8 63 -12 180 -12 l168 0 0
85 0 85 -75 0 -75 0 0 85 0 85 49 0 c78 0 81 3 81 81 l0 68 -62 3 -63 3 -3 78
-3 77 66 0 65 0 0 85 c0 50 -4 85 -10 85 -5 0 -10 -4 -10 -10 0 -6 -53 -10
-140 -10 -87 0 -140 4 -140 10 0 14 -13 12 -27 -5z"/>
<path d="M573 1675 c-10 -11 -13 -108 -13 -410 l0 -396 98 3 97 3 2 395 c2
268 -1 400 -8 410 -8 11 -12 12 -16 3 -6 -16 -133 -18 -133 -3 0 14 -13 12
-27 -5z"/>
<path d="M870 1680 c0 -5 -7 -10 -15 -10 -13 0 -15 -50 -15 -388 0 -288 3
-391 12 -400 7 -7 41 -12 84 -12 56 0 73 3 78 16 3 9 6 86 6 172 l1 157 19
-35 c11 -19 19 -50 20 -67 0 -18 5 -33 10 -33 6 0 10 -13 10 -29 0 -17 5 -33
10 -36 6 -3 10 -16 10 -28 0 -23 19 -83 33 -104 12 -19 154 -17 173 1 21 22
21 770 0 792 -17 16 -36 19 -36 4 0 -15 -97 -13 -103 3 -4 9 -8 8 -17 -3 -7
-10 -10 -64 -9 -155 2 -191 3 -186 -21 -155 -11 14 -20 37 -20 53 0 15 -4 27
-10 27 -5 0 -10 16 -10 35 0 19 -4 35 -10 35 -5 0 -10 13 -10 29 0 17 -4 33
-10 36 -5 3 -10 15 -10 25 0 10 -8 32 -17 49 -18 31 -33 40 -33 21 0 -5 -22
-10 -50 -10 -27 0 -50 5 -50 10 0 6 -4 10 -10 10 -5 0 -10 -4 -10 -10z"/>
<path d="M1520 1680 c0 -5 -9 -10 -20 -10 -22 0 -70 -41 -70 -60 0 -5 -4 -10
-9 -10 -5 0 -12 -17 -16 -37 -14 -76 -4 -213 16 -213 5 0 9 -5 9 -10 0 -11 65
-80 75 -80 3 0 11 -5 18 -10 56 -47 74 -60 85 -60 6 0 12 -4 12 -10 0 -5 5
-10 11 -10 23 0 38 -36 39 -89 0 -80 -34 -108 -77 -65 -8 8 -13 40 -13 83 0
41 -4 71 -10 71 -5 0 -10 -4 -10 -10 0 -15 -127 -13 -133 3 -2 6 -8 9 -12 5
-11 -10 -6 -192 5 -196 6 -2 10 -10 10 -19 0 -17 24 -43 39 -43 6 0 11 -4 11
-10 0 -5 8 -10 18 -10 10 0 24 -6 30 -12 9 -9 45 -13 107 -13 62 0 98 4 107
13 6 6 19 12 27 12 22 0 71 44 71 64 0 9 5 16 10 16 6 0 10 43 10 109 0 63 -4
112 -10 116 -5 3 -10 17 -10 31 0 13 -4 24 -10 24 -5 0 -10 5 -10 11 0 14 -25
39 -39 39 -6 0 -11 5 -11 10 0 6 -7 10 -15 10 -8 0 -15 5 -15 10 0 6 -5 10
-10 10 -10 0 -22 8 -55 38 -7 6 -18 12 -24 12 -6 0 -11 5 -11 10 0 6 -6 10
-14 10 -8 0 -18 9 -21 20 -3 11 -11 20 -16 20 -15 0 -10 80 5 96 36 35 66 9
66 -58 0 -55 6 -58 96 -58 l84 0 0 85 c0 50 -4 85 -10 85 -5 0 -10 5 -10 11 0
14 -25 39 -39 39 -6 0 -11 5 -11 10 0 6 -9 10 -20 10 -11 0 -20 5 -20 10 0 6
-42 10 -105 10 -63 0 -105 -4 -105 -10z"/>
<path d="M1905 1677 c-5 -7 -9 -45 -7 -84 l4 -73 59 0 59 0 2 -322 3 -323 88
-3 c67 -2 91 1 102 12 13 12 15 65 15 325 l0 311 55 0 55 0 0 85 c0 50 -4 85
-10 85 -5 0 -10 -4 -10 -10 0 -6 -72 -10 -195 -10 -123 0 -195 4 -195 10 0 13
-13 12 -25 -3z"/>
<path d="M2406 1674 c-8 -20 -8 -768 0 -788 5 -14 30 -16 174 -16 189 0 180
-4 180 78 0 90 -3 92 -86 92 l-74 0 0 85 0 85 65 0 65 0 0 75 0 75 -49 0 c-79
0 -81 2 -81 86 l0 74 70 0 70 0 0 73 c0 69 -15 118 -27 90 -6 -16 -283 -19
-283 -3 0 16 -17 12 -24 -6z"/>
<path d="M2833 1675 c-10 -11 -13 -107 -13 -410 l0 -395 99 0 c81 0 100 3 105
16 3 9 6 187 6 396 0 341 -2 381 -17 396 -12 12 -18 13 -21 4 -5 -15 -122 -17
-122 -2 0 15 -23 12 -37 -5z"/>
<path d="M3123 1675 c-10 -11 -13 -105 -13 -397 0 -211 4 -389 9 -396 5 -9 29
-12 82 -10 l74 3 3 168 c1 100 6 167 12 167 6 0 10 -9 10 -20 0 -11 5 -20 10
-20 6 0 10 -18 10 -40 0 -22 5 -40 10 -40 6 0 10 -16 10 -35 0 -19 5 -35 10
-35 6 0 10 -7 10 -16 0 -25 33 -118 44 -126 13 -9 138 -10 160 -2 14 5 16 50
16 396 0 324 -2 392 -14 404 -17 16 -36 19 -36 4 0 -5 -18 -10 -40 -10 -22 0
-40 5 -40 10 0 6 -9 10 -20 10 -19 0 -20 -7 -20 -164 0 -91 -4 -167 -8 -170
-12 -7 -42 58 -42 89 0 14 -4 25 -10 25 -5 0 -10 16 -10 35 0 19 -4 35 -10 35
-5 0 -10 14 -10 30 0 17 -4 30 -10 30 -5 0 -10 11 -10 23 0 28 -40 79 -47 60
-6 -16 -103 -18 -103 -3 0 14 -13 12 -27 -5z"/>
<path d="M1300 771 c0 -5 -12 -11 -27 -14 -35 -7 -83 -49 -83 -71 0 -9 -4 -16
-9 -16 -13 0 -23 -90 -23 -220 0 -126 9 -210 23 -210 5 0 9 -7 9 -15 0 -8 5
-15 10 -15 6 0 10 -9 10 -20 0 -13 7 -20 20 -20 11 0 20 -4 20 -8 0 -23 122
-43 135 -22 3 6 13 10 21 10 23 0 77 60 99 110 17 38 20 65 19 195 0 128 -4
157 -21 195 -25 57 -75 110 -102 110 -12 0 -21 5 -21 10 0 6 -18 10 -40 10
-22 0 -40 -4 -40 -9z m117 -76 c7 -8 13 -21 13 -29 0 -9 5 -16 10 -16 6 0 10
-16 10 -35 0 -19 5 -35 10 -35 6 0 10 -47 10 -120 0 -73 -4 -120 -10 -120 -5
0 -10 -18 -10 -40 0 -22 -4 -40 -10 -40 -5 0 -10 -8 -10 -17 0 -35 -30 -53
-88 -53 -49 0 -57 3 -83 33 -16 17 -29 42 -29 55 0 12 -4 22 -10 22 -6 0 -10
57 -10 150 0 93 4 150 10 150 6 0 10 11 10 24 0 27 46 81 75 89 30 8 97 -4
112 -18z"/>
<path d="M3410 751 c0 -17 -3 -32 -8 -35 -4 -2 -16 -34 -27 -70 -11 -36 -23
-66 -27 -66 -5 0 -8 -13 -8 -30 0 -16 -4 -30 -10 -30 -5 0 -10 -16 -10 -35 0
-19 -4 -35 -10 -35 -5 0 -10 -13 -10 -28 0 -15 -4 -32 -8 -37 -5 -6 -17 -37
-27 -70 -10 -33 -21 -64 -25 -70 -4 -5 -10 -21 -12 -35 -3 -14 -9 -33 -13 -42
-6 -15 -2 -18 29 -18 29 0 36 4 36 20 0 11 5 20 10 20 6 0 10 16 10 35 0 19 5
35 10 35 6 0 10 14 10 30 l0 30 104 0 c110 0 116 -3 116 -51 0 -10 5 -19 10
-19 6 0 10 -16 10 -36 0 -42 19 -64 55 -64 22 0 26 3 20 18 -4 9 -10 28 -12
42 -2 14 -8 34 -13 45 -4 11 -13 33 -19 48 -6 15 -11 39 -11 52 0 14 -4 25
-10 25 -5 0 -10 11 -10 25 0 14 -4 25 -10 25 -5 0 -10 13 -10 29 0 17 -4 32
-9 35 -5 3 -12 23 -16 43 -4 21 -10 42 -13 48 -13 20 -32 80 -32 103 0 12 -4
22 -10 22 -5 0 -10 16 -10 35 0 28 -4 35 -20 35 -15 0 -20 -7 -20 -29z m24
-147 c10 -4 16 -18 16 -40 0 -19 5 -34 10 -34 6 0 10 -13 10 -29 0 -17 5 -33
10 -36 6 -3 10 -17 10 -30 0 -13 5 -27 10 -30 8 -5 7 -11 -1 -21 -7 -9 -32
-14 -71 -14 -63 0 -91 14 -77 40 13 25 59 167 59 184 0 18 2 19 24 10z"/>
<path d="M170 455 l0 -305 30 0 30 0 0 150 0 150 100 0 100 0 0 25 0 25 -100
0 -100 0 0 105 0 105 130 0 130 0 0 25 0 25 -160 0 -160 0 0 -305z"/>
<path d="M703 754 c-10 -4 -13 -75 -13 -305 l0 -299 170 0 c163 0 170 1 170
20 0 19 -7 20 -135 20 l-135 0 -2 283 c-3 274 -4 282 -23 284 -11 1 -26 -1
-32 -3z"/>
<path d="M1717 753 c-4 -3 -7 -141 -7 -305 l0 -298 35 0 35 0 0 130 0 130 49
0 c41 0 51 -4 56 -20 3 -11 11 -20 16 -20 5 0 9 -7 9 -15 0 -8 5 -15 10 -15 6
0 10 -9 10 -20 0 -11 5 -20 10 -20 6 0 10 -9 10 -20 0 -11 5 -20 10 -20 6 0
10 -7 10 -15 0 -8 3 -15 8 -15 4 0 16 -18 26 -40 17 -36 23 -40 58 -40 42 0
48 9 18 30 -11 8 -20 20 -20 27 0 13 -38 81 -56 100 -7 7 -18 26 -26 43 -7 16
-16 30 -20 30 -20 0 -4 46 26 74 18 17 39 41 45 54 15 29 16 147 1 164 -6 7
-18 22 -28 34 -34 42 -75 54 -180 54 -54 0 -102 -3 -105 -7z m205 -55 c65 -37
81 -84 56 -157 -15 -42 -43 -71 -69 -71 -10 0 -21 -4 -24 -10 -3 -5 -28 -10
-56 -10 l-49 0 0 130 0 130 60 0 c33 0 70 -6 82 -12z"/>
<path d="M2271 751 c-25 -16 -4 -41 34 -41 l35 0 0 -260 0 -260 -40 0 c-33 0
-40 -3 -40 -20 0 -19 7 -20 115 -20 108 0 115 1 115 20 0 17 -7 20 -40 20
l-40 0 0 260 0 260 40 0 c36 0 40 3 40 25 l0 25 -102 0 c-57 0 -109 -4 -117
-9z"/>
<path d="M2760 455 l0 -305 30 0 30 0 0 119 0 119 58 5 c85 8 132 18 132 28 0
5 5 9 11 9 15 0 39 26 39 43 0 9 5 17 11 19 8 3 12 34 12 88 0 54 -4 85 -12
88 -6 2 -11 12 -11 21 0 11 -19 28 -49 44 -44 24 -59 27 -150 27 l-101 0 0
-305z m190 245 c0 -5 7 -10 16 -10 21 0 40 -20 59 -66 14 -33 14 -45 4 -79 -7
-22 -25 -52 -40 -67 -25 -25 -35 -28 -98 -28 l-71 0 0 130 0 130 65 0 c37 0
65 -4 65 -10z"/>
</g>
</svg>
